<svg width="24" height="28" viewBox="0 0 24 28" fill="none" xmlns="http://www.w3.org/2000/svg">
<path d="M23.4955 19.1866C23.3918 19.0625 23.29 18.9385 23.1901 18.8187C21.8162 17.1681 20.9851 16.1719 20.9851 11.4992C20.9851 9.08002 20.4024 7.09506 19.254 5.60634C18.4072 4.50655 17.2626 3.67224 15.7539 3.05566C15.7344 3.04493 15.7171 3.03086 15.7027 3.0141C15.16 1.20903 13.675 6.10352e-05 12.0002 6.10352e-05C10.3253 6.10352e-05 8.84094 1.20903 8.29828 3.01224C8.28379 3.02839 8.2667 3.04201 8.24769 3.05256C4.72691 4.49228 3.01586 7.25448 3.01586 11.4973C3.01586 16.1719 2.18593 17.1681 0.810843 18.8169C0.710927 18.9366 0.609138 19.0582 0.505476 19.1847C0.237702 19.5055 0.0680456 19.8958 0.0165842 20.3093C-0.0348772 20.7229 0.0340108 21.1424 0.215096 21.5183C0.600396 22.3247 1.42158 22.8253 2.35891 22.8253H21.6483C22.5812 22.8253 23.3968 22.3253 23.7833 21.5226C23.9652 21.1467 24.0347 20.7268 23.9837 20.3127C23.9327 19.8987 23.7633 19.5079 23.4955 19.1866ZM12.0002 27.7895C12.9025 27.7888 13.7879 27.5455 14.5623 27.0854C15.3368 26.6253 15.9714 25.9656 16.3989 25.1762C16.4191 25.1384 16.429 25.096 16.4278 25.0532C16.4266 25.0105 16.4143 24.9687 16.392 24.9321C16.3698 24.8954 16.3384 24.8651 16.3008 24.8441C16.2633 24.8231 16.221 24.812 16.1779 24.8121H7.82368C7.78054 24.8119 7.7381 24.8229 7.70049 24.8439C7.66288 24.8648 7.63138 24.8951 7.60906 24.9318C7.58674 24.9685 7.57435 25.0103 7.57311 25.0531C7.57188 25.0959 7.58182 25.1383 7.60199 25.1762C8.02946 25.9655 8.664 26.6252 9.43832 27.0852C10.2126 27.5453 11.0979 27.7887 12.0002 27.7895Z" fill="#40465B"/>
</svg>
