<svg width="14" height="14" viewBox="0 0 14 14" fill="none" xmlns="http://www.w3.org/2000/svg">
<path d="M11.4969 1.5V0H2.5V1.5H0V2.6875C0 3.6875 0.296875 4.64969 0.83625 5.39406C1.25281 5.96906 1.90406 6.36594 2.48969 6.55688C2.65969 7.47219 3.12094 8.34219 4.05813 9.05156C4.74563 9.57219 5.57219 9.95375 6.3125 10.1097V12.625H4V14H10V12.625H7.6875V10.1097C8.42781 9.95344 9.25406 9.57219 9.94188 9.05156C10.8794 8.34219 11.3403 7.47219 11.5103 6.55688C12.0959 6.36594 12.7472 5.96906 13.1637 5.39406C13.7031 4.64969 14 3.6875 14 2.6875V1.5H11.4969ZM1.95 4.5875C1.61625 4.12875 1.41344 3.5125 1.38 2.875H2.5V4.98031C2.37687 4.94469 2.09625 4.78906 1.95 4.5875ZM12.05 4.5875C11.9062 4.79406 11.6875 4.98063 11.5 4.98063C11.5 4.28063 11.5 3.53406 11.4984 2.875H12.6203C12.5866 3.5125 12.375 4.12188 12.05 4.5875Z" fill="#C7CAD5"/>
</svg>
