<svg width="16" height="16" viewBox="0 0 16 16" fill="none" xmlns="http://www.w3.org/2000/svg">
<path d="M8.22804 3.29355C8.16656 3.23358 8.08488 3.20013 7.99994 3.20013C7.915 3.20013 7.83332 3.23358 7.77184 3.29355L1.80415 9.12024C1.72359 9.19895 1.66378 9.2972 1.63026 9.40587C1.59674 9.51455 1.5906 9.63012 1.61241 9.74188L2.51226 14.3693C2.6035 14.8284 2.84665 15.2412 3.20073 15.5383C3.55481 15.8354 3.99817 15.9985 4.45609 16.0001H11.5438C12.0019 15.9981 12.4454 15.8346 12.7994 15.5372C13.1535 15.2398 13.3965 14.8266 13.4876 14.3673L14.3868 9.74188C14.4086 9.63012 14.4025 9.51455 14.369 9.40587C14.3354 9.2972 14.2756 9.19895 14.1951 9.12024L8.22804 3.29355ZM7.99994 8.40391C8.42263 8.40391 8.83583 8.53217 9.18727 8.77245C9.53871 9.01273 9.8126 9.35425 9.9743 9.7538C10.136 10.1534 10.1782 10.593 10.0957 11.0171C10.0131 11.4412 9.80946 11.8308 9.51048 12.1365C9.2115 12.4422 8.83062 12.6503 8.41601 12.7345C8.00141 12.8187 7.57171 12.7752 7.18127 12.6095C6.79083 12.4438 6.45718 12.1634 6.22254 11.8037C5.98789 11.444 5.86279 11.0212 5.86305 10.5888C5.86313 10.3018 5.91848 10.0176 6.02591 9.75245C6.13335 9.48732 6.29077 9.24644 6.4892 9.04356C6.68763 8.84068 6.92318 8.67977 7.18239 8.57002C7.4416 8.46027 7.71941 8.40383 7.99994 8.40391Z" fill="#C7CAD5"/>
<path d="M1.68069 7.7341L7.77033 2.09354C7.83461 2.03347 7.91986 2.00095 8.00783 2.00294C8.09579 2.00493 8.17948 2.04128 8.24097 2.1042L14.3199 7.7341C14.4961 7.89832 14.726 7.99276 14.9667 7.99976C15.2075 8.00675 15.4425 7.92582 15.6279 7.7721C15.6652 7.74381 15.7006 7.71308 15.7339 7.68011C15.9139 7.4856 16.0094 7.22756 15.9993 6.9627C15.9891 6.69783 15.8743 6.44783 15.6799 6.26763L9.61356 0.648404C9.18195 0.233964 8.60724 0.00174774 8.00885 9.82542e-06C7.41047 -0.00172809 6.83442 0.227146 6.40041 0.639071L0.320772 6.26763C0.224267 6.35694 0.146324 6.46439 0.0914033 6.58385C0.0364827 6.70331 0.0056635 6.83243 0.000709892 6.96381C-0.00424371 7.0952 0.0167656 7.22627 0.062535 7.34952C0.108305 7.47278 0.177936 7.5858 0.267442 7.68211C0.303848 7.7124 0.34239 7.74002 0.382769 7.76476C0.566564 7.91674 0.799023 7.99731 1.03745 7.99168C1.27588 7.98604 1.50428 7.89459 1.68069 7.7341Z" fill="#C7CAD5"/>
</svg>
