<svg width="127" height="14" viewBox="0 0 127 14" fill="none" xmlns="http://www.w3.org/2000/svg">
<path d="M75.9399 2.56637C75.9753 2.56637 76 2.53761 76 2.50526V0.061104C76 0.0287548 75.9753 0 75.9399 0H67.0601C67.0283 0 67 0.0287548 67 0.061104V13.9389C67 13.9712 67.0283 14 67.0601 14H75.8409C75.8727 14 75.901 13.9712 75.901 13.9389V11.4983C75.901 11.4624 75.8727 11.4372 75.8409 11.4372H69.5204V8.18434H74.3598C74.3916 8.18434 74.4199 8.15558 74.4199 8.12323L75.1269 5.68267C75.1269 5.65032 75.0986 5.62157 75.0668 5.62157H69.5204V2.56637H75.9399Z" fill="white"/>
<path d="M91.0575 0H92.6326C92.6529 0 92.6698 0.010783 92.68 0.0287548L98.3385 9.88087V0.061104C98.3385 0.0287548 98.3655 0 98.3959 0H99.9711C99.9914 0 100.008 0.010783 100.018 0.0287548L107.992 13.9065C108.003 13.9245 108.003 13.9497 107.992 13.9677C107.982 13.9856 107.962 14 107.942 14H105.251C105.231 14 105.214 13.9892 105.204 13.9712L100.752 6.22182V13.9389C100.752 13.9712 100.728 14 100.694 14H97.9126C97.8923 14 97.8754 13.9892 97.8619 13.9712L93.4101 6.22182V13.9389C93.4101 13.9712 93.3831 14 93.3526 14H91.0575C91.027 14 91 13.9712 91 13.9389V0.061104C91 0.0287548 91.027 0 91.0575 0Z" fill="white"/>
<path d="M84.3991 0.0395277C84.3885 0.0179672 84.3674 0 84.3428 0H81.655C81.6303 0 81.6092 0.0143737 81.6022 0.0395277L76.0049 13.9138C75.9979 13.9317 75.9979 13.9533 76.0084 13.9713C76.019 13.9892 76.0401 14 76.0577 14H78.6716C78.6962 14 78.7173 13.9856 78.7244 13.9641C78.7385 13.9281 79.3049 12.5339 80.0296 10.7336H85.9611C86.6823 12.5339 87.2522 13.9281 87.2663 13.9641C87.2769 13.9856 87.298 14 87.3226 14H89.9401C89.9612 14 89.9787 13.9892 89.9893 13.9713C89.9999 13.9533 90.0034 13.9317 89.9963 13.9138L84.3991 0.0395277ZM81.0604 8.15349L82.9989 3.04363L84.9373 8.15349H81.0604Z" fill="white"/>
<path d="M65.9403 0H60V14H62.4576C62.4857 14 62.5067 13.9784 62.5067 13.9497V2.56277H65.9403C65.9719 2.56277 66 2.53402 66 2.50167V0.061104C65.9965 0.0287548 65.9719 0 65.9403 0Z" fill="white"/>
<path d="M124.977 6.85398C124.833 6.76602 124.494 6.60769 123.707 6.23121C122.598 5.70696 121.921 5.37623 121.709 5.24252C120.992 4.79216 120.671 4.25383 120.671 3.50088C120.671 2.12868 121.85 1.38628 122.955 1.38628C123.918 1.38628 124.783 1.98794 125.108 2.88515C125.115 2.90978 125.14 2.92385 125.164 2.92385H126.492H126.495C126.527 2.92385 126.555 2.89922 126.555 2.86404C126.555 2.85348 126.552 2.84293 126.548 2.83589C126.17 1.16461 124.699 0 122.962 0C120.9 0 119.287 1.53757 119.287 3.50088C119.287 4.72883 119.852 5.70696 120.964 6.41066C121.26 6.59713 122.076 6.98768 123.114 7.48379L123.332 7.58934C123.823 7.82156 124.13 7.96934 124.264 8.04323C125.21 8.59914 125.609 9.22895 125.609 10.1578C125.609 11.5793 124.497 12.6137 122.962 12.6137C121.786 12.6137 120.766 11.8678 120.427 10.7595C120.42 10.7349 120.399 10.7173 120.371 10.7173H119.058C119.04 10.7173 119.023 10.7243 119.012 10.7384C119.001 10.7524 118.998 10.77 119.001 10.7876C119.383 12.6489 121.045 14 122.962 14C125.224 14 127 12.3111 127 10.1578C126.993 8.75044 126.315 7.64212 124.977 6.85398Z" fill="white"/>
<path d="M116.536 12.1916V0.0611197C116.536 0.0287622 116.565 0 116.598 0H117.939C117.971 0 118 0.0287622 118 0.0611197V13.8059V13.9389C118 13.9712 117.971 14 117.939 14H115.959C115.938 14 115.92 13.9892 115.905 13.9712L108.464 1.81921V11.6415C108.464 11.6703 108.446 11.6918 108.421 11.699C108.395 11.7062 108.366 11.699 108.352 11.6775L107.011 9.49153C107.004 9.48074 107 9.46995 107 9.45557V0.0611197C107 0.0287622 107.029 0 107.061 0H109.033C109.055 0 109.073 0.0107858 109.088 0.0287622V0.0323575L116.525 12.1772" fill="white"/>
<path d="M54.0597 0C54.0281 0 54 0.0287548 54 0.061104V2.50167C54 2.53761 54.0246 2.56277 54.0597 2.56277H57.4933V13.9497C57.4933 13.9784 57.5143 14 57.5424 14H60V0H54.0597Z" fill="white"/>
<path d="M20 0C16.1395 0 13 3.13952 13 7C13 10.8605 16.1395 14 20 14C23.8605 14 27 10.8605 27 7C27 3.13952 23.8605 0 20 0ZM20 11.4607C17.5388 11.4607 15.5393 9.45764 15.5393 7C15.5393 4.53881 17.5424 2.53932 20 2.53932C22.4612 2.53932 24.4607 4.54236 24.4607 7C24.4642 9.46119 22.4612 11.4607 20 11.4607Z" fill="white"/>
<path d="M9.4639 5.71861H2.52909V0.061104C2.52909 0.0287548 2.50453 0 2.46945 0H0.0596317C0.028062 0 0 0.0287548 0 0.061104V13.9389C0 13.9748 0.028062 14 0.0596317 14H2.47296C2.50804 14 2.53259 13.9712 2.53259 13.9389V8.28139H9.46741V13.9389C9.46741 13.9748 9.49196 14 9.52704 14H11.9404C11.9719 14 12 13.9712 12 13.9389V0.061104C12 0.0287548 11.9719 0 11.9404 0H9.53055C9.49547 0 9.47092 0.0287548 9.47092 0.061104L9.4639 5.71861Z" fill="white"/>
<path d="M52.9399 2.56637C52.9717 2.56637 53 2.53761 53 2.50526V0.061104C53 0.0287548 52.9717 0 52.9399 0H44.0601C44.0283 0 44 0.0287548 44 0.061104V13.9389C44 13.9712 44.0283 14 44.0601 14H52.8409C52.8727 14 52.901 13.9712 52.901 13.9389V11.4983C52.901 11.4624 52.8727 11.4372 52.8409 11.4372H46.5204V8.18434H51.3598C51.3916 8.18434 51.4199 8.15558 51.4199 8.12323L52.1269 5.68267C52.1269 5.65032 52.0986 5.62157 52.0668 5.62157H46.5204V2.56637H52.9399Z" fill="white"/>
<path d="M41.9471 0H40.3712C40.3509 0 40.334 0.010783 40.3239 0.0287548L34.6629 9.88087V0.061104C34.6629 0.0287548 34.6358 0 34.6054 0H33.0329C33.0126 0 32.9923 0.010783 32.9856 0.0287548L25.0081 13.9065C24.998 13.9245 24.9979 13.9497 25.0047 13.9677C25.0149 13.9856 25.0351 14 25.0554 14H27.7473C27.7676 14 27.7879 13.9892 27.7946 13.9712L32.2484 6.22182V13.9389C32.2484 13.9712 32.272 14 32.3058 14H35.0856C35.1059 14 35.1262 13.9892 35.133 13.9712L39.5867 6.22182V13.9389C39.5867 13.9712 39.6137 14 39.6442 14H41.9404C41.9708 14 41.9978 13.9712 41.9978 13.9389V0.061104C42.008 0.0287548 41.9809 0 41.9471 0Z" fill="white"/>
</svg>
