<svg width="20" height="18" viewBox="0 0 20 18" fill="none" xmlns="http://www.w3.org/2000/svg">
<path d="M11.25 9C13.3121 9 15.134 7.0582 15.3125 4.67109C15.4012 3.47187 15.025 2.35352 14.2531 1.52266C13.4895 0.701953 12.4219 0.25 11.25 0.25C10.0688 0.25 9.00039 0.699219 8.24219 1.51484C7.47539 2.33945 7.10156 3.46016 7.1875 4.67031C7.36289 7.05781 9.18437 9 11.25 9ZM19.3508 16.1781C19.0211 14.3492 17.9918 12.8129 16.3746 11.7348C14.9383 10.7773 13.1184 10.25 11.25 10.25C9.38164 10.25 7.56172 10.7773 6.12539 11.7344C4.5082 12.8125 3.47891 14.3488 3.14922 16.1777C3.07383 16.5969 3.17617 17.0113 3.43008 17.3148C3.54524 17.4532 3.68984 17.564 3.85332 17.6393C4.0168 17.7146 4.19503 17.7524 4.375 17.75H18.125C18.3051 17.7526 18.4834 17.7149 18.6471 17.6396C18.8107 17.5644 18.9554 17.4536 19.0707 17.3152C19.3238 17.0117 19.4262 16.5973 19.3508 16.1781ZM4.0625 10.25V8.6875H5.625C5.79076 8.6875 5.94973 8.62165 6.06694 8.50444C6.18415 8.38723 6.25 8.22826 6.25 8.0625C6.25 7.89674 6.18415 7.73777 6.06694 7.62056C5.94973 7.50335 5.79076 7.4375 5.625 7.4375H4.0625V5.875C4.0625 5.70924 3.99665 5.55027 3.87944 5.43306C3.76223 5.31585 3.60326 5.25 3.4375 5.25C3.27174 5.25 3.11277 5.31585 2.99556 5.43306C2.87835 5.55027 2.8125 5.70924 2.8125 5.875V7.4375H1.25C1.08424 7.4375 0.925268 7.50335 0.808058 7.62056C0.690848 7.73777 0.625 7.89674 0.625 8.0625C0.625 8.22826 0.690848 8.38723 0.808058 8.50444C0.925268 8.62165 1.08424 8.6875 1.25 8.6875H2.8125V10.25C2.8125 10.4158 2.87835 10.5747 2.99556 10.6919C3.11277 10.8092 3.27174 10.875 3.4375 10.875C3.60326 10.875 3.76223 10.8092 3.87944 10.6919C3.99665 10.5747 4.0625 10.4158 4.0625 10.25Z" fill="#1C86DF"/>
</svg>
