<svg width="20" height="20" viewBox="0 0 20 20" fill="none" xmlns="http://www.w3.org/2000/svg">
<path d="M18.6579 1.4946C18.6508 1.46005 18.634 1.42825 18.6094 1.40293C18.5848 1.37761 18.5536 1.35981 18.5193 1.35163C16.2314 0.792254 10.945 2.78561 8.08097 5.6485C7.57014 6.1552 7.10445 6.70546 6.68917 7.29304C5.80597 7.21491 4.92277 7.28014 4.17003 7.60827C2.0462 8.54304 1.42784 10.9821 1.25558 12.0313C1.24581 12.0887 1.24949 12.1477 1.26635 12.2034C1.2832 12.2592 1.31276 12.3103 1.3527 12.3527C1.39264 12.3951 1.44188 12.4276 1.49654 12.4478C1.55119 12.4679 1.60978 12.4751 1.66769 12.4688L5.07824 12.0926C5.08067 12.3498 5.09619 12.6066 5.12472 12.8622C5.14188 13.0396 5.22066 13.2055 5.34738 13.3309L6.66808 14.6485C6.79363 14.7751 6.95941 14.8538 7.13683 14.8712C7.39096 14.8996 7.64636 14.9151 7.90206 14.9176L7.52785 18.3239C7.5216 18.3818 7.52886 18.4403 7.54904 18.495C7.56922 18.5496 7.60178 18.5988 7.64416 18.6387C7.68654 18.6786 7.7376 18.7082 7.79333 18.7251C7.84905 18.7419 7.90793 18.7457 7.96535 18.736C9.01261 18.568 11.456 17.9497 12.3853 15.8258C12.7134 15.0731 12.7806 14.1942 12.7048 13.3153C13.2938 12.9 13.8455 12.4342 14.3536 11.9231C17.2267 9.06452 19.2087 3.89616 18.6579 1.4946ZM11.4872 8.51296C11.2249 8.25078 11.0462 7.91669 10.9737 7.55294C10.9013 7.1892 10.9383 6.81213 11.0802 6.46945C11.2221 6.12677 11.4624 5.83386 11.7708 5.62778C12.0792 5.4217 12.4417 5.3117 12.8126 5.3117C13.1835 5.3117 13.5461 5.4217 13.8544 5.62778C14.1628 5.83386 14.4031 6.12677 14.545 6.46945C14.6869 6.81213 14.7239 7.1892 14.6515 7.55294C14.579 7.91669 14.4003 8.25078 14.138 8.51296C13.964 8.68717 13.7574 8.82538 13.53 8.91967C13.3026 9.01397 13.0588 9.06251 12.8126 9.06251C12.5664 9.06251 12.3226 9.01397 12.0952 8.91967C11.8678 8.82538 11.6612 8.68717 11.4872 8.51296Z" fill="#FF7537"/>
<path d="M6.57812 15.6027C6.36406 15.8171 6.0207 15.9007 5.60742 15.9722C4.67891 16.1304 3.85898 15.3281 4.02578 14.3894C4.08945 14.0336 4.27773 13.5347 4.39492 13.4175C4.42054 13.3924 4.43759 13.3599 4.44365 13.3245C4.44971 13.2892 4.44448 13.2528 4.42869 13.2206C4.41291 13.1884 4.38738 13.1619 4.35572 13.145C4.32406 13.1282 4.28789 13.1217 4.25234 13.1265C3.73311 13.1901 3.25005 13.4255 2.88008 13.7953C1.96172 14.7144 1.875 18.125 1.875 18.125C1.875 18.125 5.2875 18.0382 6.20586 17.1191C6.57682 16.7494 6.81253 16.2656 6.875 15.7457C6.88945 15.5824 6.69062 15.4851 6.57812 15.6027Z" fill="#FF7537"/>
</svg>
