<svg width="17" height="16" viewBox="0 0 17 16" fill="none" xmlns="http://www.w3.org/2000/svg">
<path d="M15.7557 14.5551L11.3221 10.1215C12.2898 8.84935 12.7382 7.25711 12.5766 5.6669C12.415 4.0767 11.6553 2.60726 10.4514 1.55587C9.24746 0.504474 7.68911 -0.0503658 6.09162 0.00359721C4.49413 0.0575602 2.97678 0.716297 1.84654 1.84654C0.716297 2.97678 0.0575602 4.49413 0.00359721 6.09162C-0.0503658 7.68911 0.504474 9.24746 1.55587 10.4514C2.60726 11.6553 4.0767 12.415 5.6669 12.5766C7.25711 12.7382 8.84935 12.2898 10.1215 11.3221L14.5551 15.7557C14.7157 15.9123 14.9311 16 15.1554 16C15.3797 16 15.5951 15.9123 15.7557 15.7557C15.9148 15.5964 16.0041 15.3805 16.0041 15.1554C16.0041 14.9303 15.9148 14.7144 15.7557 14.5551ZM1.74384 6.3255C1.74384 5.41893 2.01267 4.53272 2.51633 3.77894C3.02 3.02515 3.73587 2.43765 4.57344 2.09072C5.411 1.74379 6.33263 1.65301 7.22178 1.82988C8.11093 2.00674 8.92767 2.4433 9.56871 3.08434C10.2098 3.72538 10.6463 4.54212 10.8232 5.43127C11 6.32042 10.9093 7.24205 10.5623 8.07961C10.2154 8.91717 9.6279 9.63305 8.87411 10.1367C8.12033 10.6404 7.23411 10.9092 6.32754 10.9092C5.11231 10.9078 3.94726 10.4244 3.08796 9.56508C2.22866 8.70578 1.74528 7.54074 1.74384 6.3255Z" fill="#596282"/>
</svg>
