<svg width="19" height="17" viewBox="0 0 19 17" fill="none" xmlns="http://www.w3.org/2000/svg">
<path d="M9.37502 0C4.19768 0 2.13947e-05 4.24023 2.13947e-05 9.475C-0.00488081 11.7865 0.832804 14.0206 2.35627 15.759C2.40236 15.8098 2.44416 15.8605 2.49026 15.907C2.8594 16.25 2.97151 16.25 3.26447 16.25C3.55744 16.25 3.75002 16.25 4.04299 15.9031C5.31252 14.4 7.26565 13.75 9.37502 13.75C11.4844 13.75 13.4403 14.4027 14.7071 15.9031C15 16.25 15.1883 16.25 15.4856 16.25C15.7828 16.25 15.927 16.25 16.2598 15.907C16.3074 15.8582 16.3477 15.8098 16.3938 15.759C17.9172 14.0206 18.7549 11.7865 18.75 9.475C18.75 4.24023 14.5524 0 9.37502 0ZM8.75002 2.5H10V5H8.75002V2.5ZM5.00002 10H2.50002V8.75H5.00002V10ZM5.83947 6.72344L4.0719 4.95547L4.95549 4.07188L6.72346 5.83945L5.83947 6.72344ZM10.2578 10.1328C10.1819 10.238 10.0896 10.3303 9.9844 10.4062C9.73042 10.5834 9.41681 10.6533 9.11164 10.6007C8.80646 10.5481 8.53435 10.3772 8.35435 10.1253C8.17436 9.87326 8.10101 9.56045 8.15022 9.25471C8.19943 8.94897 8.36723 8.67497 8.61721 8.49219L11.875 6.875L10.2578 10.1328ZM12.0266 5.83945L13.7946 4.07188L14.6781 4.95547L12.9106 6.72344L12.0266 5.83945ZM16.25 10H13.75V8.75H16.25V10Z" fill="#FFD233"/>
</svg>
