<svg width="16" height="16" viewBox="0 0 16 16" fill="none" xmlns="http://www.w3.org/2000/svg">
<path d="M1.24792 4.66406L7.41667 7.64281C7.5773 7.71938 7.79167 7.75938 8.00386 7.75938C8.21605 7.75938 8.43042 7.71938 8.59074 7.64281L14.7595 4.66406C15.0839 4.50781 15.0839 4.25219 14.7595 4.09531L8.59074 1.11656C8.43042 1.04 8.21574 1 8.00386 1C7.79199 1 7.5773 1.04 7.41667 1.11656L1.24792 4.09531C0.923545 4.25219 0.923545 4.50719 1.24792 4.66406Z" fill="#C7CAD5"/>
<path d="M14.7593 7.71553C14.7593 7.71553 13.6327 7.1724 13.4834 7.09928C13.334 7.02615 13.2937 7.03022 13.1368 7.10303C12.9799 7.17584 8.5868 9.29771 8.5868 9.29771C8.40162 9.37767 8.20161 9.4175 7.99993 9.41459C7.78837 9.41459 7.57337 9.37428 7.41305 9.29771C7.41305 9.29771 3.13649 7.23522 2.93587 7.13584C2.71868 7.03115 2.65618 7.03115 2.45837 7.1249L1.23962 7.71178C0.915244 7.86803 0.915244 8.12396 1.23962 8.28053L7.4093 11.2593C7.56962 11.3358 7.7843 11.3758 7.99618 11.3758C8.20805 11.3758 8.42274 11.3358 8.58337 11.2593L14.7521 8.28115C15.0837 8.1274 15.0837 7.8724 14.7593 7.71553Z" fill="#C7CAD5"/>
<path d="M14.7595 11.336C14.7595 11.336 13.633 10.7928 13.4836 10.7188C13.3342 10.6447 13.2939 10.6497 13.137 10.7225C12.9802 10.7953 8.59078 12.9219 8.59078 12.9219C8.40556 13.0017 8.20556 13.0415 8.0039 13.0385C7.79234 13.0385 7.57734 12.9985 7.41671 12.9219C7.41671 12.9219 3.14015 10.8594 2.93984 10.76C2.72109 10.6541 2.65858 10.6541 2.46202 10.7491L1.24327 11.336C0.918584 11.4922 0.918584 11.7478 1.24327 11.9047L7.41202 14.8835C7.57234 14.9635 7.78703 15 7.9989 15C8.21078 15 8.42546 14.96 8.58578 14.8835L14.7558 11.9063C15.0839 11.7478 15.0839 11.4928 14.7595 11.336Z" fill="#C7CAD5"/>
</svg>
