<svg width="20" height="11" viewBox="0 0 20 11" fill="none" xmlns="http://www.w3.org/2000/svg">
<path d="M17.5782 1.13505e-07C17.2989 9.01166e-05 17.0235 0.0652966 16.7737 0.190442C16.524 0.315588 16.3069 0.497226 16.1397 0.720937C15.9724 0.944647 15.8596 1.20427 15.8102 1.47919C15.7609 1.75411 15.7763 2.03675 15.8552 2.30469L13.0673 5.09219C12.6996 4.96971 12.3022 4.96971 11.9345 5.09219L9.86769 3.02539C9.9357 2.76001 9.94213 2.48258 9.88648 2.21433C9.83084 1.94608 9.71459 1.69411 9.54663 1.47768C9.37866 1.26124 9.16344 1.08608 8.9174 0.965581C8.67136 0.845083 8.40103 0.782439 8.12707 0.782439C7.8531 0.782439 7.58277 0.845083 7.33673 0.965581C7.09069 1.08608 6.87547 1.26124 6.70751 1.47768C6.53954 1.69411 6.4233 1.94608 6.36765 2.21433C6.312 2.48258 6.31843 2.76001 6.38644 3.02539L2.9298 6.47969C2.54604 6.36609 2.13536 6.38363 1.76268 6.52954C1.39 6.67545 1.07658 6.9414 0.871955 7.28535C0.667328 7.62931 0.58317 8.03165 0.632783 8.42879C0.682395 8.82593 0.862948 9.1952 1.1459 9.47825C1.42886 9.76129 1.79807 9.94196 2.19519 9.9917C2.59231 10.0414 2.99468 9.95742 3.33871 9.7529C3.68273 9.54838 3.94878 9.23505 4.09481 8.86242C4.24083 8.48978 4.25851 8.07911 4.14503 7.69531L7.55792 4.28281C7.92558 4.40537 8.32308 4.40537 8.69074 4.28281L10.7579 6.35C10.6899 6.61538 10.6835 6.89281 10.7391 7.16106C10.7948 7.42931 10.911 7.68128 11.079 7.89772C11.247 8.11415 11.4622 8.28931 11.7082 8.40981C11.9543 8.53031 12.2246 8.59295 12.4985 8.59295C12.7725 8.59295 13.0428 8.53031 13.2889 8.40981C13.5349 8.28931 13.7501 8.11415 13.9181 7.89772C14.0861 7.68128 14.2023 7.42931 14.258 7.16106C14.3136 6.89281 14.3072 6.61538 14.2392 6.35L17.0704 3.52031C17.3176 3.59323 17.5776 3.61213 17.8327 3.57574C18.0878 3.53934 18.3321 3.44849 18.549 3.30935C18.7659 3.17022 18.9504 2.98605 19.0899 2.76935C19.2293 2.55265 19.3205 2.30849 19.3573 2.05342C19.3941 1.79836 19.3756 1.53837 19.3031 1.29108C19.2306 1.0438 19.1057 0.815014 18.9369 0.620246C18.7682 0.425478 18.5595 0.269286 18.3251 0.162268C18.0906 0.0552494 17.8359 -9.1478e-05 17.5782 1.13505e-07Z" fill="#7E22F2"/>
</svg>
